# xmcd
#
# Track frame offsets: 
#        150
#        5722
#        17317
#        37162
#        49784
#        63453
#        79913
#        94366
#        107279
#        119756
#        133771
#        149406
#        159673
#        171870
#
# Disc length: 2512 seconds
#
# Revision: 0
# Processed by: cddbd v1.5.2PL0 Copyright (c) Steve Scherf et al.
# Submitted via: ExactAudioCopyFreeDBPlugin 1.0
#
DISCID=c309ce0e
DTITLE=Various Artist - Cow Island Music--P.O. Box 1
DYEAR=2011
DGENRE=Country
TTITLE0=Starline Rhythm Boys - The Charlie and Ernie Intro
TTITLE1=Starline Rhythm Boys - No Gal Cooks Like Mine
TTITLE2=Stone River Boys - The Struggle
TTITLE3=Li'l Mo and the Monicats - He's A Handful
TTITLE4=The Dixons - Please Don't Stop Lovin' Me
TTITLE5=Teri Joyce - Kitchen Radio
TTITLE6=Starline Rhythm Boys - She Don't Live Here No More
TTITLE7=Preacher Jack - Me and Bobby Mcgee
TTITLE8=Nate Gibson and the Gashouse Gang - Trolley Tour Boogie
TTITLE9=Teri Joyce - Aistin, Texas, USA
TTITLE10=Stone River Boys - Lover's Prison
TTITLE11=Li'l Mo and the Monicats - I Could Get Used To This
TTITLE12=Starline Rhythm Boys - Keep The Home Fires Burning
TTITLE13=The Dixons - Barely Hangin' On
EXTD=
EXTT0=
EXTT1=
EXTT2=
EXTT3=
EXTT4=
EXTT5=
EXTT6=
EXTT7=
EXTT8=
EXTT9=
EXTT10=
EXTT11=
EXTT12=
EXTT13=
PLAYORDER=
